# xmcd
#
# Track frame offsets: 
#        150
#        12207
#        25516
#        36010
#        47656
#        58157
#        69520
#        82621
#        95733
#        105910
#        119176
#        128318
#        140577
#        150064
#        161525
#        174893
#        185685
#        194650
#        203883
#        214826
#
# Disc length: 3035 seconds
#
# Revision: 2
# Processed by: cddbd v1.5.2PL0 Copyright (c) Steve Scherf et al.
# Submitted via: ExactAudioCopy v1.1
#
DISCID=030bd914
DTITLE=Various Artist - Rhythm and Blues Goes Rock 'n' Roll - CD14
DYEAR=2002
DGENRE=Blues
TTITLE0=Johnny 'Blues' Taylor - Unwelcome Blues (mono)
TTITLE1=Madman Taylor - Dig, Daddy Slack (mono)
TTITLE2=Willie Johnson - Got The Boogie Woogie Blues (mono)
TTITLE3=Tom 'Shy Guy' Douglas - Raid On Cedar Street (mono)
TTITLE4=Nicky Lee - Rock And Roll The Blues (mono)
TTITLE5=Erline Harris - Long Tall Papa (mono)
TTITLE6=Charlie 'Boogie Woogie' Davis - San Quentin Bait (mono)
TTITLE7=Arbee Stidham - Any Time You Ring My Bell (mono)
TTITLE8=Pee Wee Barnum - Rockin' Rhythm (mono)
TTITLE9=Billy Wright - Man's Brand Boogie (mono)
TTITLE10=Jesse Thomas - Cool Kind Lover (mono)
TTITLE11=Al Franklin Trio with Leroy Jones - Down On The Farm (mono)
TTITLE12=Piano Slim (Willard Burton) - Lot Of Shakin', Lot Of Jivin' (
TTITLE12=mono)
TTITLE13=Harmon 'Hump' Jones - Pack Your Clothes (mono)
TTITLE14=Sandra Grimms - Hallelujah Rock And Roll (mono)
TTITLE15='Guitar' Tommy Moore - I Ain't Botherin' Nobody (mono)
TTITLE16=Percy Welch - Nursery Rhyme Rock (mono)
TTITLE17=Barbara Lynn Ozen - Oh! Baby (We Got A Good Thing Goin') (mon
TTITLE17=o)
TTITLE18=Percy Welch and His House Rockers - Back Door Man (mono)
TTITLE19=Duke Jenkins - The Duke Walks (mono)
EXTD=
EXTT0=
EXTT1=
EXTT2=
EXTT3=
EXTT4=
EXTT5=
EXTT6=
EXTT7=
EXTT8=
EXTT9=
EXTT10=
EXTT11=
EXTT12=
EXTT13=
EXTT14=
EXTT15=
EXTT16=
EXTT17=
EXTT18=
EXTT19=
PLAYORDER=
